<svg xmlns="http://www.w3.org/2000/svg" viewBox="0 0 512 512" role="img" aria-labelledby="title desc">
  <title id="title">Sipseek</title>
  <desc id="desc">A bright drink cup with an S-shaped straw on a dark rounded square.</desc>
  <defs>
    <linearGradient id="background" x1="64" y1="56" x2="448" y2="456" gradientUnits="userSpaceOnUse">
      <stop stop-color="#24103d"/>
      <stop offset="1" stop-color="#07030d"/>
    </linearGradient>
    <linearGradient id="drink" x1="154" y1="172" x2="366" y2="406" gradientUnits="userSpaceOnUse">
      <stop stop-color="#ff2a98"/>
      <stop offset="0.52" stop-color="#a100ff"/>
      <stop offset="1" stop-color="#00d9ff"/>
    </linearGradient>
    <linearGradient id="straw" x1="238" y1="75" x2="327" y2="245" gradientUnits="userSpaceOnUse">
      <stop stop-color="#ffea00"/>
      <stop offset="0.5" stop-color="#ff5e00"/>
      <stop offset="1" stop-color="#ff007f"/>
    </linearGradient>
  </defs>

  <rect x="16" y="16" width="480" height="480" rx="112" fill="url(#background)"/>
  <circle cx="256" cy="256" r="198" fill="none" stroke="#ffffff" stroke-opacity="0.08" stroke-width="4"/>

  <path d="M251 168c-16-21-11-51 13-64l33-18c13-7 29-3 36 10 7 13 2 29-11 36l-28 15c-11 6-14 20-7 30l17 22"
        fill="none" stroke="url(#straw)" stroke-width="28" stroke-linecap="round" stroke-linejoin="round"/>

  <path d="M140 188h232l-25 220c-2 20-19 35-39 35H204c-20 0-37-15-39-35l-25-220Z"
        fill="url(#drink)"/>
  <path d="M140 188h232" fill="none" stroke="#f9f5ff" stroke-width="24" stroke-linecap="round"/>
  <path d="M167 228c57 21 121 21 178 0" fill="none" stroke="#ffffff" stroke-opacity="0.34" stroke-width="12" stroke-linecap="round"/>

  <path d="M292 255c-13-11-31-17-50-17-25 0-44 13-44 31 0 21 22 27 47 32 28 6 51 13 51 38 0 23-22 39-54 39-22 0-42-7-57-20"
        fill="none" stroke="#ffffff" stroke-width="24" stroke-linecap="round"/>
  <circle cx="177" cy="142" r="11" fill="#00f0ff"/>
  <circle cx="385" cy="157" r="8" fill="#ffea00"/>
  <circle cx="399" cy="215" r="13" fill="#ff007f"/>
</svg>
